REM DIRINDEX 1\2,1\3,1\4,1\5,1\6
REM DIRNAME cjc129,folder01,folder02,folder03,folder04,folder05
TITLE ""
FILE "DISC2Track18.mp3" MP3
  TRACK 01 AUDIO
    TITLE "0:"
    INDEX 01 00:00:00
  TRACK 02 AUDIO
    TITLE "3:cjc129_1448"
    INDEX 01 00:00:05
  TRACK 03 AUDIO
    TITLE "0:"
    INDEX 01 00:01:24
  TRACK 04 AUDIO
    TITLE "5:cjc129_1449"
    INDEX 01 00:02:69
  TRACK 05 AUDIO
    TITLE "0:"
    INDEX 01 00:04:40
  TRACK 06 AUDIO
    TITLE "4:cjc129_1450"
    INDEX 01 00:05:30
  TRACK 07 AUDIO
    TITLE "0:"
    INDEX 01 00:06:45
  TRACK 08 AUDIO
    TITLE "6:cjc129_1451"
    INDEX 01 00:07:03
  TRACK 09 AUDIO
    TITLE "0:"
    INDEX 01 00:11:58
  TRACK 10 AUDIO
    TITLE "3:cjc129_1452"
    INDEX 01 00:13:33
  TRACK 11 AUDIO
    TITLE "0:"
    INDEX 01 00:14:49
  TRACK 12 AUDIO
    TITLE "5:cjc129_1453"
    INDEX 01 00:16:06
  TRACK 13 AUDIO
    TITLE "0:"
    INDEX 01 00:19:73
  TRACK 14 AUDIO
    TITLE "4:cjc129_1454"
    INDEX 01 00:20:61
  TRACK 15 AUDIO
    TITLE "0:"
    INDEX 01 00:22:01
  TRACK 16 AUDIO
    TITLE "6:cjc129_1455"
    INDEX 01 00:22:38
  TRACK 17 AUDIO
    TITLE "0:"
    INDEX 01 00:25:50
  TRACK 18 AUDIO
    TITLE "3:cjc129_1456"
    INDEX 01 00:27:26
  TRACK 19 AUDIO
    TITLE "0:"
    INDEX 01 00:28:55
  TRACK 20 AUDIO
    TITLE "5:cjc129_1457"
    INDEX 01 00:30:32
  TRACK 21 AUDIO
    TITLE "0:"
    INDEX 01 00:33:09
  TRACK 22 AUDIO
    TITLE "4:cjc129_1458"
    INDEX 01 00:33:73
  TRACK 23 AUDIO
    TITLE "0:"
    INDEX 01 00:35:31
  TRACK 24 AUDIO
    TITLE "6:cjc129_1459"
    INDEX 01 00:35:64
  TRACK 25 AUDIO
    TITLE "0:"
    INDEX 01 00:42:39
  TRACK 26 AUDIO
    TITLE "3:cjc129_1460"
    INDEX 01 00:44:18
  TRACK 27 AUDIO
    TITLE "0:"
    INDEX 01 00:45:45
  TRACK 28 AUDIO
    TITLE "5:cjc129_1461"
    INDEX 01 00:47:07
  TRACK 29 AUDIO
    TITLE "0:"
    INDEX 01 00:50:19
  TRACK 30 AUDIO
    TITLE "4:cjc129_1462"
    INDEX 01 00:51:11
  TRACK 31 AUDIO
    TITLE "0:"
    INDEX 01 00:52:43
  TRACK 32 AUDIO
    TITLE "6:cjc129_1463"
    INDEX 01 00:52:73
  TRACK 33 AUDIO
    TITLE "0:"
    INDEX 01 00:57:64
  TRACK 34 AUDIO
    TITLE "3:cjc129_1464"
    INDEX 01 00:59:39
  TRACK 35 AUDIO
    TITLE "0:"
    INDEX 01 01:00:64
  TRACK 36 AUDIO
    TITLE "5:cjc129_1465"
    INDEX 01 01:02:36
  TRACK 37 AUDIO
    TITLE "0:"
    INDEX 01 01:06:42
  TRACK 38 AUDIO
    TITLE "4:cjc129_1466"
    INDEX 01 01:07:31
  TRACK 39 AUDIO
    TITLE "0:"
    INDEX 01 01:08:54
  TRACK 40 AUDIO
    TITLE "6:cjc129_1467"
    INDEX 01 01:09:12
  TRACK 41 AUDIO
    TITLE "0:"
    INDEX 01 01:13:28
  TRACK 42 AUDIO
    TITLE "3:cjc129_1468"
    INDEX 01 01:15:05
  TRACK 43 AUDIO
    TITLE "0:"
    INDEX 01 01:16:30
  TRACK 44 AUDIO
    TITLE "5:cjc129_1469"
    INDEX 01 01:17:63
  TRACK 45 AUDIO
    TITLE "0:"
    INDEX 01 01:21:20
  TRACK 46 AUDIO
    TITLE "4:cjc129_1470"
    INDEX 01 01:22:07
  TRACK 47 AUDIO
    TITLE "0:"
    INDEX 01 01:23:30
  TRACK 48 AUDIO
    TITLE "6:cjc129_1471"
    INDEX 01 01:23:63
  TRACK 49 AUDIO
    TITLE "0:"
    INDEX 01 01:27:73
  TRACK 50 AUDIO
    TITLE "3:cjc129_1472"
    INDEX 01 01:29:46
  TRACK 51 AUDIO
    TITLE "0:"
    INDEX 01 01:30:58
  TRACK 52 AUDIO
    TITLE "5:cjc129_1473"
    INDEX 01 01:32:27
  TRACK 53 AUDIO
    TITLE "0:"
    INDEX 01 01:34:40
  TRACK 54 AUDIO
    TITLE "4:cjc129_1474"
    INDEX 01 01:35:31
  TRACK 55 AUDIO
    TITLE "0:"
    INDEX 01 01:36:43
  TRACK 56 AUDIO
    TITLE "6:cjc129_1475"
    INDEX 01 01:36:74
  TRACK 57 AUDIO
    TITLE "0:"
    INDEX 01 01:40:64
  TRACK 58 AUDIO
    TITLE "3:cjc129_1476"
    INDEX 01 01:42:41
  TRACK 59 AUDIO
    TITLE "0:"
    INDEX 01 01:43:52
  TRACK 60 AUDIO
    TITLE "5:cjc129_1477"
    INDEX 01 01:45:06
  TRACK 61 AUDIO
    TITLE "0:"
    INDEX 01 01:48:73
  TRACK 62 AUDIO
    TITLE "4:cjc129_1478"
    INDEX 01 01:49:63
  TRACK 63 AUDIO
    TITLE "0:"
    INDEX 01 01:50:72
  TRACK 64 AUDIO
    TITLE "6:cjc129_1479"
    INDEX 01 01:51:30
  TRACK 65 AUDIO
    TITLE "0:"
    INDEX 01 01:55:54
  TRACK 66 AUDIO
    TITLE "3:cjc129_1480"
    INDEX 01 01:57:31
  TRACK 67 AUDIO
    TITLE "0:"
    INDEX 01 01:58:60
  TRACK 68 AUDIO
    TITLE "5:cjc129_1481"
    INDEX 01 02:00:31
  TRACK 69 AUDIO
    TITLE "0:"
    INDEX 01 02:02:28
  TRACK 70 AUDIO
    TITLE "4:cjc129_1482"
    INDEX 01 02:03:20
  TRACK 71 AUDIO
    TITLE "0:"
    INDEX 01 02:04:49
  TRACK 72 AUDIO
    TITLE "6:cjc129_1483"
    INDEX 01 02:05:09
  TRACK 73 AUDIO
    TITLE "0:"
    INDEX 01 02:10:28
  TRACK 74 AUDIO
    TITLE "3:cjc129_1484"
    INDEX 01 02:12:03
  TRACK 75 AUDIO
    TITLE "0:"
    INDEX 01 02:13:34
  TRACK 76 AUDIO
    TITLE "5:cjc129_1485"
    INDEX 01 02:14:63
  TRACK 77 AUDIO
    TITLE "0:"
    INDEX 01 02:19:54
  TRACK 78 AUDIO
    TITLE "4:cjc129_1486"
    INDEX 01 02:20:48
  TRACK 79 AUDIO
    TITLE "0:"
    INDEX 01 02:22:04
  TRACK 80 AUDIO
    TITLE "6:cjc129_1487"
    INDEX 01 02:22:35
  TRACK 81 AUDIO
    TITLE "0:"
    INDEX 01 02:26:21
